<?xml version="1.0" encoding="UTF-8" standalone="no"?>
<!DOCTYPE svg PUBLIC "-//W3C//DTD SVG 1.1//EN" "http://www.w3.org/Graphics/SVG/1.1/DTD/svg11.dtd">
<svg width="100%" height="100%" viewBox="0 0 75 75" version="1.1" xmlns="http://www.w3.org/2000/svg" xmlns:xlink="http://www.w3.org/1999/xlink" xml:space="preserve" xmlns:serif="http://www.serif.com/" style="fill-rule:evenodd;clip-rule:evenodd;stroke-linejoin:round;stroke-miterlimit:2;">
    <g transform="matrix(1,0,0,1,-577.508,-423.071)">
        <g transform="matrix(1,0,0,1,-13,0)">
            <g transform="matrix(1,0,0,1,-45.058,0)">
                <path d="M672.673,469.455L672.673,488.009C672.673,493.129 668.516,497.286 663.396,497.286L644.842,497.286C639.722,497.286 635.566,493.129 635.566,488.009L635.566,469.455C635.566,464.335 639.722,460.179 644.842,460.179L663.396,460.179C668.516,460.179 672.673,464.335 672.673,469.455Z" style="fill:white;"/>
            </g>
        </g>
        <g transform="matrix(1,0,0,1,-20.7879,-37.1071)">
            <path d="M672.673,469.455L672.673,488.009C672.673,493.129 668.516,497.286 663.396,497.286L644.842,497.286C639.722,497.286 635.566,493.129 635.566,488.009L635.566,469.455C635.566,464.335 639.722,460.179 644.842,460.179L663.396,460.179C668.516,460.179 672.673,464.335 672.673,469.455Z" style="fill:white;"/>
        </g>
    </g>
</svg>
